<?xml version="1.0" standalone="no"?>
<!DOCTYPE svg PUBLIC "-//W3C//DTD SVG 20010904//EN"
 "http://www.w3.org/TR/2001/REC-SVG-20010904/DTD/svg10.dtd">
<svg version="1.0" xmlns="http://www.w3.org/2000/svg"
 width="2406.000000pt" height="894.000000pt" viewBox="0 0 2406.000000 894.000000"
 preserveAspectRatio="xMidYMid meet">

<g transform="translate(0.000000,894.000000) scale(0.100000,-0.100000)"
fill="#000000" stroke="none">
<path d="M0 4548 c0 -3062 3 -4405 11 -4431 6 -21 28 -56 50 -78 l39 -39
11980 0 11980 0 0 4470 0 4470 -12030 0 -12030 0 0 -4392z m12714 1172 c15 -5
28 -20 32 -36 10 -39 -143 -1090 -165 -1134 -16 -30 -44 -49 -222 -143 -132
-71 -218 -110 -244 -113 -36 -4 -63 8 -250 109 -158 85 -214 120 -227 143 -24
41 -181 1120 -167 1147 6 10 20 22 32 27 31 12 1179 13 1211 0z m908 -1859
c108 -69 122 -227 28 -318 -110 -107 -277 -33 -288 128 -6 78 2 102 46 151 67
74 138 87 214 39z m-3292 9 c12 -8 9 -10 -12 -10 -20 0 -28 -5 -28 -17 -1 -10
-2 -89 -3 -176 l-2 -159 -37 -34 c-29 -26 -46 -34 -76 -34 -63 0 -95 55 -49
84 25 16 53 -5 50 -38 -2 -27 4 -31 24 -18 11 7 16 94 14 290 -1 102 -1 102
-26 102 -14 0 -25 5 -25 10 0 13 150 13 170 0z m199 -55 c74 -219 109 -300
130 -303 12 -2 21 -8 21 -13 0 -5 -36 -9 -80 -9 -47 0 -80 4 -80 10 0 6 9 10
20 10 24 0 24 -4 4 54 l-17 48 -45 -6 c-25 -3 -51 -6 -59 -6 -13 0 -21 -15
-37 -67 -6 -19 -4 -23 13 -23 11 0 23 -4 26 -10 4 -6 -17 -10 -57 -9 -56 1
-60 2 -36 12 19 7 31 23 39 46 6 20 17 50 24 66 7 17 30 80 51 140 32 93 51
132 60 122 1 -1 11 -29 23 -62z m319 47 l-28 -3 0 -87 c0 -47 4 -82 8 -76 4 5
36 41 70 80 34 40 62 74 62 78 0 3 -9 6 -20 6 -11 0 -20 5 -20 10 0 6 26 10
59 10 33 0 63 -4 66 -10 4 -6 -6 -10 -22 -10 -22 0 -41 -14 -86 -65 l-58 -65
87 -110 c54 -68 95 -110 106 -110 10 0 18 -4 18 -10 0 -6 -35 -10 -85 -10 -50
0 -85 4 -85 10 0 6 9 10 20 10 17 0 10 13 -42 81 -34 44 -66 83 -70 85 -5 3
-8 -33 -8 -80 0 -78 2 -86 19 -86 11 0 23 -4 26 -10 4 -6 -25 -10 -79 -10 -51
0 -86 4 -86 10 0 6 9 10 20 10 19 0 20 7 20 175 0 174 0 175 -22 177 -13 1 11
4 52 7 72 6 136 0 78 -7z m554 3 c10 -13 10 -95 1 -95 -5 1 -20 18 -34 39 -23
32 -34 40 -73 45 -25 4 -51 4 -56 1 -13 -8 -11 -153 2 -161 13 -8 56 22 63 46
14 43 25 16 25 -60 0 -84 -8 -100 -27 -50 -11 28 -49 53 -65 43 -5 -2 -8 -40
-8 -84 l0 -79 54 0 c49 0 57 3 85 35 17 20 31 42 31 50 0 7 5 17 10 20 6 4 10
-18 10 -59 l0 -66 -155 0 c-97 0 -155 4 -155 10 0 6 11 10 25 10 l25 0 0 169
0 169 -25 6 c-14 4 -23 10 -20 15 7 12 278 8 287 -4z m527 -9 c40 -21 65 -74
52 -109 -10 -26 -52 -63 -79 -71 -9 -2 -38 -7 -64 -11 l-48 -6 0 -75 c0 -67 2
-74 19 -74 11 0 23 -4 26 -10 4 -6 -27 -10 -84 -10 -54 0 -91 4 -91 10 0 6 11
10 25 10 l25 0 0 176 c0 157 -2 175 -16 170 -18 -7 -37 1 -29 13 2 5 55 7 118
6 83 -2 121 -7 146 -19z m362 -2 c11 -27 11 -84 0 -84 -5 0 -19 15 -30 34 -24
38 -30 42 -95 51 l-46 7 0 -86 c0 -47 4 -86 9 -86 23 0 43 15 57 42 22 43 34
25 34 -52 0 -77 -11 -95 -30 -49 -12 29 -46 52 -62 42 -5 -2 -8 -40 -8 -84 l0
-79 48 0 c58 0 85 17 115 73 l22 42 3 -54 c2 -29 1 -60 -2 -67 -4 -11 -38 -14
-156 -14 -93 0 -150 4 -150 10 0 6 11 10 25 10 l24 0 -5 168 c-4 92 -8 168 -9
170 -2 2 -11 5 -22 7 -10 2 -19 4 -21 4 -2 1 -1 5 2 10 3 5 70 8 148 6 127 -3
143 -5 149 -21z m697 0 c64 -41 40 -124 -43 -151 l-30 -10 31 -16 c43 -22 62
-56 66 -113 3 -42 6 -49 26 -52 38 -6 24 -22 -18 -22 -60 0 -90 33 -90 100 0
41 -5 56 -25 75 -13 14 -36 25 -50 25 -25 0 -25 0 -25 -90 0 -90 0 -90 26 -90
14 0 23 -4 19 -10 -3 -5 -42 -10 -86 -10 -51 0 -78 4 -74 10 3 6 15 10 26 10
18 0 19 7 17 173 l-3 172 -25 5 c-37 7 116 18 180 13 30 -3 65 -11 78 -19z
m305 16 c26 0 27 -2 27 -50 0 -27 -4 -50 -8 -50 -5 0 -21 18 -38 40 -55 76
-144 66 -144 -16 0 -40 13 -48 94 -63 66 -12 92 -30 113 -79 41 -98 -82 -208
-178 -158 -16 8 -32 10 -40 5 -31 -19 -39 -10 -39 46 0 30 4 55 9 55 6 0 24
-20 42 -44 36 -50 73 -65 118 -46 29 12 51 46 51 80 0 33 -35 59 -90 66 -97
13 -145 73 -120 149 17 51 63 77 125 71 28 -3 62 -6 78 -6z m545 1 c31 -1 38
-9 112 -123 l80 -123 0 118 0 117 -26 0 c-14 0 -23 4 -20 9 3 4 29 7 58 5 67
-4 68 -5 38 -13 l-25 -7 -3 -182 c-1 -100 -6 -182 -11 -182 -4 0 -59 77 -121
170 -62 94 -115 170 -116 170 -2 0 -4 -72 -4 -160 l0 -160 25 0 c14 0 25 -4
25 -10 0 -6 -27 -10 -61 -10 -37 0 -58 4 -54 10 3 6 15 10 26 10 19 0 19 7 17
173 -3 172 -3 172 -25 170 -22 -3 -30 7 -18 19 3 3 20 4 38 2 18 -1 47 -3 65
-3z m-1262 -156 c31 -83 60 -162 66 -177 6 -17 18 -28 29 -28 10 0 21 -4 24
-10 4 -6 -25 -10 -79 -10 -51 0 -86 4 -86 10 0 6 9 10 20 10 11 0 20 3 20 8 0
12 -26 81 -32 88 -4 3 -31 3 -62 -1 -47 -6 -56 -11 -64 -34 -6 -14 -13 -34
-17 -43 -5 -14 -2 -18 13 -18 12 0 24 -4 27 -10 4 -6 -17 -10 -57 -10 -59 1
-61 2 -34 13 25 11 35 30 87 177 33 91 61 171 64 178 11 31 30 -1 81 -143z"/>
<path d="M11513 5674 c-9 -24 147 -1086 163 -1109 13 -17 320 -187 402 -222
32 -13 36 -12 230 87 108 56 207 111 219 123 21 20 30 73 103 572 61 420 77
551 67 557 -7 4 -274 8 -595 8 -521 0 -583 -2 -589 -16z m731 -323 c10 -15
-242 -511 -259 -511 -8 0 -15 9 -15 20 0 11 54 128 120 260 112 223 136 260
154 231z m-314 -53 c0 -7 -42 -54 -92 -105 l-93 -93 93 -93 c50 -51 92 -98 92
-105 0 -28 -31 -6 -130 93 l-105 105 105 105 c99 99 130 121 130 93z m482 -85
c54 -54 98 -104 98 -113 0 -21 -191 -210 -212 -210 -34 0 -18 25 74 117 l93
93 -93 93 c-50 51 -92 98 -92 105 0 31 43 4 132 -85z"/>
<path d="M13489 3863 c-33 -8 -44 -52 -44 -174 0 -104 2 -121 21 -146 17 -22
30 -29 65 -31 37 -2 49 1 69 23 23 24 24 32 25 155 0 122 -1 130 -24 154 -24
25 -64 32 -112 19z"/>
<path d="M10441 3691 c-11 -32 -21 -61 -21 -65 0 -3 23 -6 51 -6 37 0 50 4 46
13 -2 6 -13 36 -23 65 -10 28 -22 52 -25 52 -3 0 -16 -26 -28 -59z"/>
<path d="M11790 3770 l0 -93 42 6 c53 7 68 27 68 93 0 60 -11 73 -70 81 l-40
6 0 -93z"/>
<path d="M12830 3779 l0 -82 42 6 c51 7 68 27 68 83 0 54 -20 74 -71 74 l-39
0 0 -81z"/>
<path d="M12457 3703 c-8 -27 -18 -56 -22 -65 -6 -16 -1 -18 44 -18 28 0 51 3
51 6 0 16 -43 124 -50 124 -4 0 -14 -21 -23 -47z"/>
</g>
</svg>
